{
	"asset":{
		"generator":"Khronos glTF Blender I/O v4.1.63",
		"version":"2.0"
	},
	"scene":0,
	"scenes":[
		{
			"name":"Scene",
			"nodes":[
				0,
				1,
				2,
				3
			]
		}
	],
	"nodes":[
		{
			"mesh":0,
			"name":"Cube",
			"translation":[
				0,
				-0.9724414348602295,
				0
			]
		},
		{
			"mesh":1,
			"name":"Cube.001",
			"translation":[
				-0.08648916333913803,
				-0.3510946035385132,
				0.03776618838310242
			]
		},
		{
			"mesh":2,
			"name":"Plane",
			"scale":[
				0.8673006296157837,
				0.8673006296157837,
				0.8673006296157837
			],
			"translation":[
				0,
				0.37122318148612976,
				0
			]
		},
		{
			"mesh":3,
			"name":"Cube.002",
			"rotation":[
				-0.9999706745147705,
				0,
				0,
				0.007665754295885563
			],
			"translation":[
				0,
				5.539441108703613,
				0
			]
		}
	],
	"materials":[
		{
			"doubleSided":true,
			"name":"Material",
			"pbrMetallicRoughness":{
				"baseColorFactor":[
					0.801577091217041,
					0.29820680618286133,
					0.020480355247855186,
					1
				],
				"metallicFactor":0
			}
		},
		{
			"doubleSided":true,
			"name":"ticki",
			"pbrMetallicRoughness":{
				"baseColorFactor":[
					0.14978313446044922,
					0.0257867444306612,
					0,
					1
				],
				"metallicFactor":0
			}
		},
		{
			"doubleSided":true,
			"name":"cheese",
			"pbrMetallicRoughness":{
				"baseColorFactor":[
					1,
					0.8585737347602844,
					0.055905796587467194,
					1
				],
				"metallicFactor":0
			}
		}
	],
	"meshes":[
		{
			"name":"Cube.003",
			"primitives":[
				{
					"attributes":{
						"POSITION":0,
						"NORMAL":1,
						"TEXCOORD_0":2
					},
					"indices":3,
					"material":0
				}
			]
		},
		{
			"name":"Cube.001",
			"primitives":[
				{
					"attributes":{
						"POSITION":4,
						"NORMAL":5,
						"TEXCOORD_0":6
					},
					"indices":3,
					"material":1
				}
			]
		},
		{
			"name":"Plane.001",
			"primitives":[
				{
					"attributes":{
						"POSITION":7,
						"NORMAL":8,
						"TEXCOORD_0":9
					},
					"indices":10,
					"material":2
				}
			]
		},
		{
			"name":"Cube.002",
			"primitives":[
				{
					"attributes":{
						"POSITION":11,
						"NORMAL":12,
						"TEXCOORD_0":13
					},
					"indices":3,
					"material":0
				}
			]
		}
	],
	"accessors":[
		{
			"bufferView":0,
			"componentType":5126,
			"count":24,
			"max":[
				4.945010662078857,
				2.786543369293213,
				4.945010662078857
			],
			"min":[
				-4.945010662078857,
				0.9204904437065125,
				-4.945010662078857
			],
			"type":"VEC3"
		},
		{
			"bufferView":1,
			"componentType":5126,
			"count":24,
			"type":"VEC3"
		},
		{
			"bufferView":2,
			"componentType":5126,
			"count":24,
			"type":"VEC2"
		},
		{
			"bufferView":3,
			"componentType":5123,
			"count":84,
			"type":"SCALAR"
		},
		{
			"bufferView":4,
			"componentType":5126,
			"count":24,
			"max":[
				4.945010662078857,
				3.124315023422241,
				4.945010662078857
			],
			"min":[
				-4.945010662078857,
				1.8344380855560303,
				-4.945010662078857
			],
			"type":"VEC3"
		},
		{
			"bufferView":5,
			"componentType":5126,
			"count":24,
			"type":"VEC3"
		},
		{
			"bufferView":6,
			"componentType":5126,
			"count":24,
			"type":"VEC2"
		},
		{
			"bufferView":7,
			"componentType":5126,
			"count":714,
			"max":[
				4.719223499298096,
				2.7586870193481445,
				4.828799247741699
			],
			"min":[
				-4.689259052276611,
				1.4595799446105957,
				-4.758508205413818
			],
			"type":"VEC3"
		},
		{
			"bufferView":8,
			"componentType":5126,
			"count":714,
			"type":"VEC3"
		},
		{
			"bufferView":9,
			"componentType":5126,
			"count":714,
			"type":"VEC2"
		},
		{
			"bufferView":10,
			"componentType":5123,
			"count":3456,
			"type":"SCALAR"
		},
		{
			"bufferView":11,
			"componentType":5126,
			"count":24,
			"max":[
				4.945010662078857,
				2.786543369293213,
				4.945010662078857
			],
			"min":[
				-4.945010662078857,
				0.9204904437065125,
				-4.945010662078857
			],
			"type":"VEC3"
		},
		{
			"bufferView":12,
			"componentType":5126,
			"count":24,
			"type":"VEC3"
		},
		{
			"bufferView":13,
			"componentType":5126,
			"count":24,
			"type":"VEC2"
		}
	],
	"bufferViews":[
		{
			"buffer":0,
			"byteLength":288,
			"byteOffset":0,
			"target":34962
		},
		{
			"buffer":0,
			"byteLength":288,
			"byteOffset":288,
			"target":34962
		},
		{
			"buffer":0,
			"byteLength":192,
			"byteOffset":576,
			"target":34962
		},
		{
			"buffer":0,
			"byteLength":168,
			"byteOffset":768,
			"target":34963
		},
		{
			"buffer":0,
			"byteLength":288,
			"byteOffset":936,
			"target":34962
		},
		{
			"buffer":0,
			"byteLength":288,
			"byteOffset":1224,
			"target":34962
		},
		{
			"buffer":0,
			"byteLength":192,
			"byteOffset":1512,
			"target":34962
		},
		{
			"buffer":0,
			"byteLength":8568,
			"byteOffset":1704,
			"target":34962
		},
		{
			"buffer":0,
			"byteLength":8568,
			"byteOffset":10272,
			"target":34962
		},
		{
			"buffer":0,
			"byteLength":5712,
			"byteOffset":18840,
			"target":34962
		},
		{
			"buffer":0,
			"byteLength":6912,
			"byteOffset":24552,
			"target":34963
		},
		{
			"buffer":0,
			"byteLength":288,
			"byteOffset":31464,
			"target":34962
		},
		{
			"buffer":0,
			"byteLength":288,
			"byteOffset":31752,
			"target":34962
		},
		{
			"buffer":0,
			"byteLength":192,
			"byteOffset":32040,
			"target":34962
		}
	],
	"buffers":[
		{
			"byteLength":32232,
			"uri":"Burger.bin"
		}
	]
}
