{
  "accessors": [
    {
      "bufferView": 2,
      "componentType": 5126,
      "count": 651,
      "max": [
        0.012480000033974648,
        -0.064069002866745,
        1.64552903175354
      ],
      "min": [
        -0.008098999969661236,
        -0.15292400121688843,
        1.183709979057312
      ],
      "type": "VEC3"
    },
    {
      "bufferView": 2,
      "byteOffset": 7812,
      "componentType": 5126,
      "count": 651,
      "max": [
        0.9799574613571167,
        0.9997854828834534,
        0.9662551283836365
      ],
      "min": [
        -0.9358279705047607,
        -0.9997541308403015,
        -0.9544379711151123
      ],
      "type": "VEC3"
    },
    {
      "bufferView": 1,
      "componentType": 5126,
      "count": 651,
      "max": [
        0.4503540098667145,
        0.5837820172309875
      ],
      "min": [
        0.029527999460697174,
        0.028006000444293022
      ],
      "type": "VEC2"
    },
    {
      "bufferView": 0,
      "componentType": 5125,
      "count": 1680,
      "type": "SCALAR"
    },
    {
      "bufferView": 2,
      "byteOffset": 15624,
      "componentType": 5126,
      "count": 5186,
      "max": [
        0.1972229927778244,
        0.015742000192403793,
        1.653210997581482
      ],
      "min": [
        -0.01672299951314926,
        -0.15986299514770508,
        1.057744026184082
      ],
      "type": "VEC3"
    },
    {
      "bufferView": 2,
      "byteOffset": 77856,
      "componentType": 5126,
      "count": 5186,
      "max": [
        0.9961112141609192,
        0.9999374747276306,
        0.9970831274986267
      ],
      "min": [
        -0.9999834895133972,
        -0.9999376535415649,
        -0.9990167617797852
      ],
      "type": "VEC3"
    },
    {
      "bufferView": 1,
      "byteOffset": 5208,
      "componentType": 5126,
      "count": 5186,
      "max": [
        0.2186959981918335,
        0.4308350086212158
      ],
      "min": [
        0.06647399812936783,
        0.013124000281095505
      ],
      "type": "VEC2"
    },
    {
      "bufferView": 0,
      "byteOffset": 6720,
      "componentType": 5125,
      "count": 28500,
      "type": "SCALAR"
    },
    {
      "bufferView": 2,
      "byteOffset": 140088,
      "componentType": 5126,
      "count": 8515,
      "max": [
        0.3125860095024109,
        0.10369399935007095,
        1.7068090438842773
      ],
      "min": [
        -0.06887300312519073,
        -0.1347389966249466,
        1.0966540575027466
      ],
      "type": "VEC3"
    },
    {
      "bufferView": 2,
      "byteOffset": 242268,
      "componentType": 5126,
      "count": 8515,
      "max": [
        0.9999760985374451,
        0.999978244304657,
        0.9978893399238586
      ],
      "min": [
        -0.999974250793457,
        -0.9998903870582581,
        -0.999568521976471
      ],
      "type": "VEC3"
    },
    {
      "bufferView": 1,
      "byteOffset": 46696,
      "componentType": 5126,
      "count": 8515,
      "max": [
        0.6016510128974915,
        0.9667770266532898
      ],
      "min": [
        0.00981799978762865,
        0.5379760265350342
      ],
      "type": "VEC2"
    },
    {
      "bufferView": 0,
      "byteOffset": 120720,
      "componentType": 5125,
      "count": 45528,
      "type": "SCALAR"
    },
    {
      "bufferView": 2,
      "byteOffset": 344448,
      "componentType": 5126,
      "count": 6866,
      "max": [
        -0.1611340045928955,
        0.10270299762487411,
        1.610414981842041
      ],
      "min": [
        -0.3317599892616272,
        -0.13096900284290314,
        1.0920629501342773
      ],
      "type": "VEC3"
    },
    {
      "bufferView": 2,
      "byteOffset": 426840,
      "componentType": 5126,
      "count": 6866,
      "max": [
        0.9999447464942932,
        0.9999529719352722,
        0.9808791279792786
      ],
      "min": [
        -0.9999428987503052,
        -0.9999433755874634,
        -0.9982485175132751
      ],
      "type": "VEC3"
    },
    {
      "bufferView": 1,
      "byteOffset": 114816,
      "componentType": 5126,
      "count": 6866,
      "max": [
        0.9015309810638428,
        0.9737719893455505
      ],
      "min": [
        0.6827470064163208,
        0.5449709892272949
      ],
      "type": "VEC2"
    },
    {
      "bufferView": 0,
      "byteOffset": 302832,
      "componentType": 5125,
      "count": 38040,
      "type": "SCALAR"
    },
    {
      "bufferView": 2,
      "byteOffset": 509232,
      "componentType": 5126,
      "count": 9773,
      "max": [
        0.16992899775505066,
        0.12662699818611145,
        1.5960710048675537
      ],
      "min": [
        -0.170523002743721,
        -0.040437001734972,
        1.0481319427490234
      ],
      "type": "VEC3"
    },
    {
      "bufferView": 2,
      "byteOffset": 626508,
      "componentType": 5126,
      "count": 9773,
      "max": [
        0.9999653697013855,
        0.9999776482582092,
        0.9971415400505066
      ],
      "min": [
        -0.9999809861183167,
        -0.9999773502349854,
        -0.998612642288208
      ],
      "type": "VEC3"
    },
    {
      "bufferView": 1,
      "byteOffset": 169744,
      "componentType": 5126,
      "count": 9773,
      "max": [
        0.5834699869155884,
        0.4018619954586029
      ],
      "min": [
        0.2588939964771271,
        0.022109000012278557
      ],
      "type": "VEC2"
    },
    {
      "bufferView": 0,
      "byteOffset": 454992,
      "componentType": 5125,
      "count": 56124,
      "type": "SCALAR"
    },
    {
      "bufferView": 2,
      "byteOffset": 743784,
      "componentType": 5126,
      "count": 6580,
      "max": [
        0.18465399742126465,
        0.09791000187397003,
        1.6639039516448975
      ],
      "min": [
        -0.1960970014333725,
        -0.15681099891662598,
        1.0559860467910767
      ],
      "type": "VEC3"
    },
    {
      "bufferView": 2,
      "byteOffset": 822744,
      "componentType": 5126,
      "count": 6580,
      "max": [
        0.9998711347579956,
        0.9999866485595703,
        0.998894214630127
      ],
      "min": [
        -0.9997380971908569,
        -0.9999868869781494,
        -0.9986640214920044
      ],
      "type": "VEC3"
    },
    {
      "bufferView": 1,
      "byteOffset": 247928,
      "componentType": 5126,
      "count": 6580,
      "max": [
        0.7806239724159241,
        0.4989440143108368
      ],
      "min": [
        0.3206140100955963,
        0.014902999624609947
      ],
      "type": "VEC2"
    },
    {
      "bufferView": 0,
      "byteOffset": 679488,
      "componentType": 5125,
      "count": 35532,
      "type": "SCALAR"
    }
  ],
  "asset": {
    "extras": {
      "author": "eigenscene (https://sketchfab.com/eigenscene)",
      "license": "CC-BY-4.0 (http://creativecommons.org/licenses/by/4.0/)",
      "source": "https://sketchfab.com/3d-models/shirt-745d0d185b49405694ef4e16cf78e224",
      "title": "Shirt"
    },
    "generator": "Sketchfab-14.86.0",
    "version": "2.0"
  },
  "bufferViews": [
    {
      "buffer": 0,
      "byteLength": 821616,
      "name": "floatBufferViews",
      "target": 34963
    },
    {
      "buffer": 0,
      "byteLength": 300568,
      "byteOffset": 821616,
      "byteStride": 8,
      "name": "floatBufferViews",
      "target": 34962
    },
    {
      "buffer": 0,
      "byteLength": 901704,
      "byteOffset": 1122184,
      "byteStride": 12,
      "name": "floatBufferViews",
      "target": 34962
    }
  ],
  "buffers": [
    {
      "byteLength": 2023888,
      "uri": "scene.bin"
    }
  ],
  "images": [
    {
      "uri": "textures/Shirt00_1Button_FRONT_baseColor.jpeg"
    },
    {
      "uri": "textures/Shirt00_1Material4782_baseColor.png"
    }
  ],
  "materials": [
    {
      "doubleSided": true,
      "name": "Shirt00_1Button_FRONT",
      "pbrMetallicRoughness": {
        "baseColorFactor": [
          0.37,
          0.37,
          0.37,
          1.0
        ],
        "baseColorTexture": {
          "index": 0
        },
        "metallicFactor": 0.0,
        "roughnessFactor": 0.4
      }
    },
    {
      "doubleSided": true,
      "name": "Shirt00_1Material4782",
      "pbrMetallicRoughness": {
        "baseColorFactor": [
          0.23,
          0.23,
          0.23,
          1.0
        ],
        "baseColorTexture": {
          "index": 1
        },
        "metallicFactor": 0.0,
        "roughnessFactor": 0.9
      }
    }
  ],
  "meshes": [
    {
      "name": "Object_0",
      "primitives": [
        {
          "attributes": {
            "NORMAL": 1,
            "POSITION": 0,
            "TEXCOORD_0": 2
          },
          "indices": 3,
          "material": 0,
          "mode": 4
        }
      ]
    },
    {
      "name": "Object_1",
      "primitives": [
        {
          "attributes": {
            "NORMAL": 5,
            "POSITION": 4,
            "TEXCOORD_0": 6
          },
          "indices": 7,
          "material": 1,
          "mode": 4
        }
      ]
    },
    {
      "name": "Object_2",
      "primitives": [
        {
          "attributes": {
            "NORMAL": 9,
            "POSITION": 8,
            "TEXCOORD_0": 10
          },
          "indices": 11,
          "material": 1,
          "mode": 4
        }
      ]
    },
    {
      "name": "Object_3",
      "primitives": [
        {
          "attributes": {
            "NORMAL": 13,
            "POSITION": 12,
            "TEXCOORD_0": 14
          },
          "indices": 15,
          "material": 1,
          "mode": 4
        }
      ]
    },
    {
      "name": "Object_4",
      "primitives": [
        {
          "attributes": {
            "NORMAL": 17,
            "POSITION": 16,
            "TEXCOORD_0": 18
          },
          "indices": 19,
          "material": 1,
          "mode": 4
        }
      ]
    },
    {
      "name": "Object_5",
      "primitives": [
        {
          "attributes": {
            "NORMAL": 21,
            "POSITION": 20,
            "TEXCOORD_0": 22
          },
          "indices": 23,
          "material": 1,
          "mode": 4
        }
      ]
    }
  ],
  "nodes": [
    {
      "children": [
        1
      ],
      "matrix": [
        1.0,
        0.0,
        0.0,
        0.0,
        0.0,
        2.220446049250313e-16,
        -1.0,
        0.0,
        0.0,
        1.0,
        2.220446049250313e-16,
        0.0,
        0.0,
        0.0,
        0.0,
        1.0
      ],
      "name": "Sketchfab_model"
    },
    {
      "children": [
        2,
        3,
        4,
        5,
        6,
        7
      ],
      "name": "Shirt01.obj.cleaner.materialmerger.gles"
    },
    {
      "mesh": 0,
      "name": "Object_2"
    },
    {
      "mesh": 1,
      "name": "Object_3"
    },
    {
      "mesh": 2,
      "name": "Object_4"
    },
    {
      "mesh": 3,
      "name": "Object_5"
    },
    {
      "mesh": 4,
      "name": "Object_6"
    },
    {
      "mesh": 5,
      "name": "Object_7"
    }
  ],
  "samplers": [
    {
      "magFilter": 9729,
      "minFilter": 9987,
      "wrapS": 10497,
      "wrapT": 10497
    }
  ],
  "scene": 0,
  "scenes": [
    {
      "name": "Sketchfab_Scene",
      "nodes": [
        0
      ]
    }
  ],
  "textures": [
    {
      "sampler": 0,
      "source": 0
    },
    {
      "sampler": 0,
      "source": 1
    }
  ]
}
